<?xml version="1.0" encoding="UTF-8"?>
<!-- Generator: Adobe Illustrator 18.1.0, SVG Export Plug-In . SVG Version: 6.00 Build 0)  -->
<!DOCTYPE svg PUBLIC "-//W3C//DTD SVG 1.0//EN" "http://www.w3.org/TR/2001/REC-SVG-20010904/DTD/svg10.dtd">
<svg version="1.0" id="Layer_1" xmlns="http://www.w3.org/2000/svg" xmlns:xlink="http://www.w3.org/1999/xlink" x="0px" y="0px" viewBox="0 0 441.6 199.8" enable-background="new 0 0 441.6 199.8" xml:space="preserve">
<path fill="#9FCF67" d="M111.1,111.6c-6.6,0-12.3,5.7-12.3,12.3c0,6.6,5.7,12.3,12.3,12.3c6.6,0,12.3-5.7,12.3-12.3  C123.4,116.8,117.7,111.6,111.1,111.6"/>
<path fill="#00285E" d="M31.1,14.4c-8.5,0-15.4,7.3-15.4,17.2c0,9.5,6.9,16.9,15.4,16.9c8.5,0,15.4-7.6,15.4-16.9  C46.5,22.1,39.6,14.4,31.1,14.4 M61.9,58.4c0,19.9-11.9,32.3-31.1,32.3C16.4,90.8,4,82.5,1.7,69.8h16.8c2,4.8,8.1,6.6,12.3,6.6  c10.8,0,15.7-7.1,15.7-17.8V56c-4.5,4.4-10.7,6.7-17.5,6.7c-15.8,0-28.7-14-28.7-31.2C0.3,14.2,13,0,31.1,0  c18,0,30.7,14.2,30.7,31.5V58.4z"/>
<path fill="#00285E" d="M105.6,14.8c-9.8-1.7-16.3,3.5-16.3,12v34.7H74V26.8c0-17,11.8-28.9,31.6-26.4V14.8z"/>
<path fill="#00285E" d="M152.9,18.9c-2.8-3.4-7-5.4-11.9-5.4c-8.8,0-15.9,7-16.3,17.2L152.9,18.9z M170.1,42.4  c-3.5,12.2-14.1,20.5-29,20.5c-17,0-30.7-14-30.7-31.3c0-17.3,13.7-31.5,30.7-31.5c14.4,0,26.5,9.1,29.4,25.1l-42.4,17.8  c3,4.1,7.6,6.4,12.8,6.4c5,0,10.1-2.2,12.7-7H170.1z"/>
<path fill="#00285E" d="M220.2,18.9c-2.8-3.4-7-5.4-11.9-5.4c-8.8,0-15.9,7-16.3,17.2L220.2,18.9z M237.4,42.4  c-3.5,12.2-14.1,20.5-29,20.5c-17,0-30.7-14-30.7-31.3c0-17.3,13.7-31.5,30.7-31.5c14.4,0,26.5,9.1,29.4,25.1l-42.3,17.8  c3,4.1,7.6,6.4,12.8,6.4c5,0,10.1-2.2,12.7-7H237.4z"/>
<path fill="#00285E" d="M274.6,0c16.8,0,26.6,11.1,26.6,26.8v34.7h-15.4v-35c0-3.4-1.2-11.4-11.3-11.4c-6.7,0-11.6,4.7-11.6,11.4v35  h-15.4V26.8C247.6,11.5,258.3,0,274.6,0"/>
<path fill="#00285E" d="M236.7,147.4c-17.6,1.9-26.9-8.7-26.9-25.1V72.4h15.4v15.2H236v13.6h-10.8v21.2c0,8.4,3.8,11.5,11.5,11.1  V147.4z"/>
<path fill="#00285E" d="M273.9,148.9c-16.8,0-26.6-11.1-26.6-26.8V87.6h15.4v35c0,3.4,1.2,11.4,11.3,11.4c6.7,0,11.6-4.8,11.6-11.4  v-35h15.4v34.6C300.8,137.4,290.1,148.9,273.9,148.9"/>
<path fill="#00285E" d="M343.7,100.5c-8.5,0-15.4,7.7-15.4,17.2c0,9.3,6.9,16.9,15.4,16.9c8.5,0,15.4-7.3,15.4-16.9  C359,107.9,352.2,100.5,343.7,100.5 M343.7,148.9c-18.2,0-30.8-14-30.8-31.3V61h15.5v32.3c4.5-4.8,10.5-7,17.5-7  c15.8,0,28.6,14.1,28.6,31.3C374.4,135,361.7,148.9,343.7,148.9"/>
<path fill="#00285E" d="M423.8,105c-2.8-3.4-7-5.4-11.9-5.4c-8.8,0-15.9,7-16.3,17.2L423.8,105z M441.1,128.5  c-3.5,12.2-14.1,20.5-29,20.5c-17,0-30.7-14-30.7-31.3c0-17.3,13.7-31.5,30.7-31.5c14.4,0,26.5,9.1,29.4,25.1L399.2,129  c3,4.1,7.6,6.4,12.8,6.4c5,0,10.1-2.2,12.7-7H441.1z"/>
<path fill="#00285E" d="M24.2,123.9c0-7.1-5.2-12.3-11.9-12.3c-6.6,0-12.3,5.7-12.3,12.3c0,6.6,5.7,12.3,12.3,12.3  C19,136.3,24.2,130.6,24.2,123.9"/>
<path fill="#00285E" d="M45.1,111.6c-6.6,0-12.3,5.7-12.3,12.3c0,6.6,5.2,12.3,12.3,12.3c6.6,0,12.3-5.7,12.3-12.3  C57.4,116.8,51.7,111.6,45.1,111.6"/>
<path fill="#00285E" d="M78.3,136.3c6.6,0,11.9-5.7,11.9-12.3c0-7.1-5.2-12.3-11.9-12.3c-7.1,0-12.3,5.7-12.3,12.3  C66,130.6,71.2,136.3,78.3,136.3"/>
<path fill="#00285E" d="M156.6,123.9c0-7.1-5.7-12.3-12.3-12.3c-6.6,0-12.3,5.7-12.3,12.3c0,6.6,5.7,12.3,12.3,12.3  C150.9,136.3,156.6,130.6,156.6,123.9"/>
<path fill="#00285E" d="M177.5,111.6c-6.6,0-12.3,5.7-12.3,12.3c0,6.6,5.2,12.3,12.3,12.3c6.7,0,12.3-5.7,12.3-12.3  C189.8,116.8,184.2,111.6,177.5,111.6"/>
<polygon fill="#00285E" points="441.1,174.5 0.7,174.5 0.7,175.9 278.1,175.9 441.1,175.9 "/>
<g>
	<path fill="#00285E" d="M156.8,184.7h3.6l5.6,11h0v-11h2.8v14.8h-3.6l-5.6-11h0v11h-2.8V184.7z"/>
	<path fill="#00285E" d="M179.8,184.5c4.6,0,7.2,3.1,7.2,7.6c0,4.5-2.6,7.7-7.2,7.7c-4.7,0-7.2-3.2-7.2-7.7   C172.6,187.6,175.1,184.5,179.8,184.5z M179.8,197.4c3,0,4.1-2.7,4.1-5.4c0-2.6-1.2-5.3-4.1-5.3c-2.9,0-4.1,2.7-4.1,5.3   C175.7,194.8,176.8,197.4,179.8,197.4z"/>
	<path fill="#00285E" d="M189.3,184.7h3.2l3.8,11.6h0l3.7-11.6h2.9l-5,14.8h-3.6L189.3,184.7z"/>
	<path fill="#00285E" d="M212.5,184.5c4.6,0,7.2,3.1,7.2,7.6c0,4.5-2.6,7.7-7.2,7.7c-4.7,0-7.2-3.2-7.2-7.7   C205.3,187.6,207.8,184.5,212.5,184.5z M212.5,197.4c3,0,4.1-2.7,4.1-5.4c0-2.6-1.2-5.3-4.1-5.3c-2.9,0-4.1,2.7-4.1,5.3   C208.3,194.8,209.5,197.4,212.5,197.4z"/>
	<path fill="#00285E" d="M223.5,184.7h4.7l3.5,11.2h0l3.5-11.2h4.7v14.8h-2.8v-12.2h0l-4,12.2h-2.8l-4-12.2l0,0v12.1h-2.8V184.7z"/>
	<path fill="#00285E" d="M248.8,184.7h3.3l5.8,14.8h-3.3l-1.3-3.4h-6l-1.3,3.4H243L248.8,184.7z M250.4,187.7L250.4,187.7l-2.2,6.1   h4.3L250.4,187.7z"/>
	<path fill="#00285E" d="M261.9,187.1h-4.2v-2.3h11.4v2.3h-4.2v12.4h-3V187.1z"/>
	<path fill="#00285E" d="M271.7,184.7h3v9v5.8h-3V184.7z"/>
	<path fill="#00285E" d="M289.7,199.3c-1.1,0.3-2.2,0.5-3.4,0.5c-4.8,0-8.1-2.4-8.1-7.4c0-5.1,3.1-7.9,8.1-7.9c1,0,2.3,0.2,3.3,0.6   l-0.2,2.5c-1.1-0.6-2.1-0.8-3.2-0.8c-3,0-5,2.3-5,5.4c0,3,1.9,5.3,5,5.3c1.2,0,2.5-0.3,3.2-0.6L289.7,199.3z"/>
	<path fill="#00285E" d="M307.6,184.7h3.6l5.6,11h0v-11h2.8v14.8h-3.6l-5.6-11h0v11h-2.8V184.7z"/>
	<path fill="#00285E" d="M415.3,184.7h3.2l3.8,11.6h0l3.7-11.6h2.9l-5,14.8h-3.6L415.3,184.7z"/>
	<path fill="#00285E" d="M369,184.7h3.3l5.8,14.8h-3.3l-1.3-3.4h-6l-1.3,3.4h-3.1L369,184.7z M370.6,187.7L370.6,187.7l-2.2,6.1h4.3   L370.6,187.7z"/>
	<path fill="#00285E" d="M326.5,187h-4.2v-2.3h11.4v2.3h-4.2v12.4h-3V187z"/>
	<path fill="#00285E" d="M398.6,187h-4.2v-2.3h11.4v2.3h-4.2v12.4h-3V187z"/>
	<path fill="#00285E" d="M300.2,184.7h3v9v5.8h-3V184.7z"/>
	<path fill="#00285E" d="M409.2,184.7h3v9v5.8h-3V184.7z"/>
	<path fill="#00285E" d="M391.2,199.3c-1.1,0.3-2.2,0.5-3.4,0.5c-4.8,0-8.1-2.4-8.1-7.4c0-5.1,3.1-7.9,8.1-7.9c1,0,2.3,0.2,3.3,0.6   l-0.2,2.5c-1.1-0.6-2.1-0.8-3.2-0.8c-3,0-5,2.3-5,5.4c0,3,1.9,5.3,5,5.3c1.2,0,2.5-0.3,3.2-0.6L391.2,199.3z"/>
	<path fill="#00285E" d="M350.3,184.7h3.2c3.2,0,7-0.1,7,4c0,1.7-1.2,3.2-3,3.4v0c0.8,0.1,1.3,0.9,1.6,1.5l2.4,5.8h-3.3l-1.8-4.6   c-0.4-1.1-0.8-1.5-2.1-1.5h-1v6.1h-3V184.7z M353.3,191h1c1.5,0,3.1-0.2,3.1-2.1c0-1.8-1.7-1.9-3.1-1.9h-1V191z"/>
	<g>
		<path fill="#00285E" d="M345.7,192.9h-5.9v4.3h6.6v2.2H337v-14.8h9.1v2.2h-6.2v3.8h5.9V192.9z"/>
	</g>
	<g>
		<path fill="#00285E" d="M440.9,192.9H435v4.3h6.6v2.2h-9.4v-14.8h9.1v2.2H435v3.8h5.9V192.9z"/>
	</g>
</g>
</svg>