<?xml version="1.0" encoding="UTF-8" standalone="no"?>
<svg
  xmlns:svg="http://www.w3.org/2000/svg"
  xmlns="http://www.w3.org/2000/svg"
  version="1.1"
  viewBox="0 0 3503 873">
  <g transform="scale(1, -1) translate(0, -873)" style="fill: #ffffff; fill-opacity:1; fill-rule:nonzero; stroke:none;">
    <g style="fill:#565353;">
      <path d="m 1104.12,49.1016 c 18.93,-10.3125 41.09,-16.2696 71.1,-16.2696 39.72,0 72.5,17.461 72.5,56.7383 0,54.3557 -147.75,61.0937 -147.75,133.6917 0,44.433 45.24,72.207 102.04,72.207 15.7,0 41.09,-1.973 63.25,-9.121 l -5.07,-25 c -14.32,6.757 -36.94,10.312 -58.65,10.312 -33.24,0 -69.72,-11.894 -69.72,-47.597 0,-55.547 147.76,-55.938 147.76,-136.8755 0,-55.9375 -55.87,-78.14453 -105.74,-78.14453 -31.4,0 -55.87,5.54683 -72.95,11.89453 l 3.23,28.1641"/>
      <path d="m 1426.91,290.703 h 157.91 v -23.789 h -126.06 v -98.789 h 119.6 v -23.809 h -119.6 V 37.5977 h 131.6 V 13.7891 H 1426.91 V 290.703" />
      <path d="m 1773.71,168.125 h 33.7 c 37.4,0 80.35,12.305 80.35,50.781 0,45.215 -37.4,48.008 -81.27,48.008 h -32.78 z m -31.86,122.578 h 83.11 c 57.25,0 94.66,-21.015 94.66,-71.797 0,-35.703 -31.86,-59.511 -71.58,-63.867 v -0.801 c 25.86,-2.773 31.41,-14.687 41.57,-33.32 l 54.94,-107.1289 h -35.09 l -46.64,93.6329 c -18.47,35.703 -32.32,36.894 -62.79,36.894 h -26.32 V 13.7891 h -31.86 V 290.703"/>
      <path d="m 2198.08,13.7891 h -34.17 L 2043.86,290.703 h 33.7 l 103.9,-249.5311 107.58,249.5311 h 31.4 L 2198.08,13.7891"/>
      <path d="m 2441.92,290.703 h 31.86 V 13.7891 h -31.86 V 290.703"/>
      <path d="m 2852.87,259.766 c -20.32,9.121 -49.41,11.894 -72.04,11.894 -83.57,0 -130.67,-50.781 -130.67,-119.414 0,-69.8241 45.71,-119.414 130.67,-119.414 21.25,0 53.57,2.3828 72.04,11.9141 l 1.84,-23.8086 c -17.55,-9.1211 -53.56,-11.89453 -73.88,-11.89453 -101.58,0 -162.52,57.51953 -162.52,143.20303 0,84.121 62.79,143.223 162.52,143.223 18.94,0 57.26,-2.774 73.88,-10.313 l -1.84,-25.39"/>
      <path d="m 3022.83,290.703 h 157.91 v -23.789 h -126.05 v -98.789 h 119.58 V 144.316 H 3054.69 V 37.5977 h 131.6 V 13.7891 H 3022.83 V 290.703"/>
      <path d="m 3328.07,49.1016 c 18.93,-10.3125 41.1,-16.2696 71.11,-16.2696 39.7,0 72.49,17.461 72.49,56.7383 0,54.3557 -147.76,61.0937 -147.76,133.6917 0,44.433 45.26,72.207 102.04,72.207 15.71,0 41.1,-1.973 63.26,-9.121 l -5.07,-25 c -14.32,6.757 -36.95,10.312 -58.65,10.312 -33.24,0 -69.71,-11.894 -69.71,-47.597 0,-55.547 147.75,-55.938 147.75,-136.8755 0,-55.9375 -55.87,-78.14453 -105.74,-78.14453 -31.4,0 -55.87,5.54683 -72.95,11.89453 l 3.23,28.1641"/>
    </g>
    <g style="fill:#559821;">
      <path d="m 1566.32,409.805 h -99.19 l -107.67,126.504 h -144.85 v 77.734 h 180.38 c 24.81,0 45.65,6.367 62.57,19.109 19.15,14.934 28.73,36.235 28.73,63.918 0,56.211 -30.42,84.317 -91.3,84.317 H 1175.15 V 409.805 h -67.07 v 449.992 h 276.19 c 49.6,0 89.63,-12.524 120.06,-37.551 34.95,-28.562 52.41,-70.508 52.41,-125.84 0,-37.785 -10.14,-70.285 -30.42,-97.511 -18.81,-25.477 -44.36,-43.27 -76.68,-53.368 l 116.68,-135.722"/>
      <path d="m 2100.65,409.805 -86.22,0.664 -64.83,125.84 h -182.61 l 40.57,77.734 h 102.02 L 1842.53,743.84 1668.89,410.469 h -86.22 l 209.12,406.504 c 5.25,10.539 12.56,20.195 21.97,28.984 11.28,10.098 21.42,15.156 30.45,15.156 9.75,0 19.91,-4.843 30.42,-14.492 9.04,-8.359 16.35,-18.242 22,-29.648 l 204.02,-407.168" />
      <path d="m 2468.74,633.152 c 0,43.489 -11.94,79.055 -35.79,106.731 -23.89,27.676 -54.21,41.504 -91.04,41.504 H 2191.4 V 488.203 h 150.51 c 36.83,0 67.15,13.399 91.04,40.195 23.85,26.786 35.79,61.7 35.79,104.754 z m 67.07,6.594 c 0,-66.328 -18.33,-121.23 -54.95,-164.719 -36.65,-43.472 -82.97,-65.222 -138.95,-65.222 h -217 v 449.992 h 217 c 56.73,0 103.22,-20.207 139.49,-60.617 36.27,-40.41 54.41,-93.555 54.41,-159.434" />
      <path d="m 3010.6,409.805 -86.23,0.664 -64.82,125.84 h -182.61 l 40.57,77.734 h 102.03 L 2752.47,743.84 2578.84,410.469 h -86.22 l 209.12,406.504 c 5.26,10.539 12.56,20.195 21.97,28.984 11.27,10.098 21.42,15.156 30.46,15.156 9.74,0 19.89,-4.843 30.41,-14.492 9.04,-8.359 16.35,-18.242 22,-29.648 L 3010.6,409.805" />
      <path d="M 3494.22,409.805 H 3395 L 3287.36,536.309 H 3142.5 v 77.734 h 180.37 c 24.8,0 45.64,6.367 62.57,19.109 19.14,14.934 28.75,36.235 28.75,63.918 0,56.211 -30.45,84.317 -91.32,84.317 H 3103.04 V 409.805 h -67.07 v 449.992 h 276.19 c 49.61,0 89.61,-12.524 120.06,-37.551 34.93,-28.562 52.42,-70.508 52.42,-125.84 0,-37.785 -10.15,-70.285 -30.45,-97.511 -18.78,-25.477 -44.33,-43.27 -76.65,-53.368 l 116.68,-135.722"/>
    </g>
    <path d="m 785.836,872.258 c 47.758,0 86.473,-38.656 86.473,-86.438 V 86.4844 C 872.309,38.7305 833.594,0 785.781,0 H 86.5547 C 38.7539,0 0,38.7305 0.0390625,86.4844 L 0,785.82 c 0.0390625,47.715 38.7539,86.438 86.5195,86.438 H 785.836" style="fill:#565353" />
    <path d="M 760.969,434.902 C 760.297,256.355 614.879,111.289 436.188,111.289 c -86.653,0 -168.192,33.816 -229.606,95.227 -61.422,61.414 -95.234,142.957 -95.215,229.605 -0.019,86.633 33.797,168.156 95.219,229.57 61.418,61.411 142.961,95.227 229.605,95.227 v 53.789 C 335.219,814.707 240.188,775.281 168.605,703.699 97.0117,632.109 57.5977,537.078 57.6211,436.121 57.5977,335.168 97.0156,240.137 168.613,168.547 240.195,96.9531 335.211,57.5391 436.152,57.5391 c 0.008,0 0.02,0 0.036,0 h 0.035 c 208.3,0 377.804,169.1799 378.476,377.3629 h -53.73" />
    <path d="m 436.191,211.484 h -0.152 c -123.789,0.008 -224.5,100.782 -224.5,224.637 0,123.867 100.777,224.641 224.649,224.641 h 0.003 v 53.75 h -0.003 c -74.239,0 -144.114,-28.996 -196.758,-81.641 -52.645,-52.656 -81.625,-122.527 -81.614,-196.75 -0.011,-74.234 28.969,-144.109 81.614,-196.758 52.64,-52.644 122.515,-81.629 196.758,-81.629 153.085,0 277.679,124.231 278.343,277.168 H 660.82 C 660.156,311.602 559.723,211.484 436.328,211.484" />
    <path d="m 560.391,434.902 c -0.664,-67.949 -56.094,-123.047 -124.203,-123.047 -68.528,0 -124.274,55.75 -124.274,124.266 0,68.52 55.746,124.27 124.274,124.27 h 0.003 v 53.75 h -0.003 c -98.168,0 -178.032,-79.856 -178.032,-178.02 0,-98.16 79.864,-178.016 178.032,-178.016 97.757,0 177.308,79.2 177.972,176.797 h -53.769" />
    <path d="m 436.137,485.801 c 27.511,0 49.707,-22.285 49.707,-49.68 0,-27.449 -22.246,-49.715 -49.684,-49.715 -27.457,0 -49.683,22.266 -49.683,49.715 0,27.395 22.226,49.68 49.66,49.68" />
  </g>
</svg>
